<svg xmlns="http://www.w3.org/2000/svg" xmlns:svgjs="http://svgjs.dev/svgjs" xmlns:xlink="http://www.w3.org/1999/xlink" width="1000" height="1125" version="1.1" viewBox="0 0 1000 1125"><g transform="matrix(1,0,0,1,0,0)"><svg xmlns="http://www.w3.org/2000/svg" xmlns:xlink="http://www.w3.org/1999/xlink" width="1000" height="1125" data-background-color="#35185a" preserveAspectRatio="xMidYMid meet" viewBox="0 0 320 360"><g id="tight-bounds" transform="matrix(1,0,0,1,0,0)"><svg width="320" height="360" viewBox="0 0 320 360"><g><svg/></g><g><svg width="320" height="360" viewBox="0 0 320 360"><g><path fill="#a437db" d="M219.58 41.008c0.707 0 6.365 2.829 9.547 3.89-1.061 0.354-3.536-0.707-6.365-1.768 0.707 0 2.122 0.354 3.536 1.06-0.707-0.707-6.011-2.475-6.718-3.182M166.895 30.047c1.061-0.354 13.436 1.414 19.094 1.768 0.354-0.354-0.707-0.354-2.122-0.707 1.768-0.354 5.304 0.707 7.779 1.06-7.425 0.354-15.558-1.768-22.629-1.06-2.475 0-0.707-0.707-2.122-1.061M156.641 30.047c6.365 0 11.315 0 2.121 0.707-1.061-0.354-2.475-0.354-2.121-0.707M256.707 59.395c0.707 0 3.536 3.182 4.95 4.243-0.354 0.354-3.182-2.475-4.596-3.536 0.354 0.354 0 0-0.354-0.707M249.635 54.798c-2.829-2.475-3.889-2.475-4.243-3.889 2.475 1.414 4.243 2.829 4.243 3.889M204.022 32.522c0.354-0.354 1.061 0.354 2.829 0.707-2.122-0.354-1.768 0-1.061 0.707-2.475-0.354-3.182-0.707-2.475-1.414 1.414 0.707 1.768 0.354 0.707 0M103.602 36.765c0-0.354 1.414-1.061 2.475-1.414-1.061 0.707-0.707 1.061 1.061 0.353 0 0.354-2.122 1.061-3.536 1.768 0.707-0.354 1.414-1.414 0-0.707M211.094 28.986c-1.061 0.354-4.95-1.768-8.84-2.475-2.122-0.707 8.486 1.768 8.84 2.475M2.475 203.66c2.122 8.84 0.707 8.486 0 0M2.829 150.621c0.354-1.414 0.707-5.304 1.06-4.95-1.061 8.486-2.829 12.376-3.182 18.74 1.061-5.657-0.354 3.182-0.707 5.304 0.354 2.829 0.354-1.768 1.061-1.06 0.707 1.061-1.414 15.912-0.707 7.779-0.707 7.425 0 15.558 1.414 17.679-1.768 11.315 7.072 36.773 8.84 42.077 0.354 0.354 0-1.768 0.707-0.353 0.707 4.597 3.889 7.779 4.95 12.729 1.061 1.414 5.304 9.193 6.011 10.962 1.414 2.829 2.122 2.475 3.536 5.303 4.243 8.133 10.961 15.912 17.326 23.337 20.508 24.044 51.978 43.845 86.984 50.918 35.006 7.425 71.779 2.122 100.419-11.669 1.768-1.061 1.414-1.414 3.536-2.122 9.901-3.182 21.923-13.436 28.641-17.326 3.182-3.536 11.669-9.547 12.73-13.082 6.011-4.95 12.022-13.083 15.204-18.387 1.768-2.829 3.182-2.829 3.889-4.597-0.354 0 5.657-7.425 7.426-11.668-0.707 0-1.768 2.122-1.768 0 12.729-24.398 19.801-57.282 15.911-79.912 0.707 27.934-6.365 59.05-19.801 78.851-6.011 12.729-18.387 26.519-29.701 36.42-1.768 1.768-3.536 3.889-5.658 5.304-6.718 5.657-14.144 10.254-21.922 14.497-18.387 10.254-38.895 19.094-62.94 19.447 41.37-3.536 78.497-24.398 99.006-49.856-15.558 15.204-22.276 21.215-39.602 30.055-1.414 2.475-13.083 7.425-20.862 9.547 4.597-2.122 14.144-5.657 17.326-8.486-25.812 12.376-54.453 19.448-81.326 15.558 10.254 0 24.751 0.354 38.541-2.121 2.122-0.707 3.182-1.414 5.658-1.768 26.873-6.011 52.685-19.094 71.072-37.481-10.608 9.547-26.519 20.862-36.774 24.398 9.547-5.304 26.873-15.558 32.53-23.337-11.315 11.315-32.53 22.63-45.966 27.58-2.122 0.354 1.414-1.414-2.122 0-4.243 1.061-2.475 1.061-3.536 1.768-16.265 4.597-35.006 8.486-50.563 7.072-2.829-0.354-3.889-1.061-6.365-1.061-2.829-0.354-5.304-0.354-8.486-0.354-12.376-1.414-25.812-6.365-35.713-10.607-5.304-2.475-10.608-4.243-15.912-7.426-4.243-2.475-7.779-5.304-11.314-8.132-13.436-9.901-24.751-19.801-35.36-33.945-19.094-26.519-28.994-59.757-27.58-92.641 1.414-32.884 14.497-65.061 35.359-88.752-1.061 1.061 1.414-2.475 3.536-4.596 0 0.707-0.354 1.768 2.122-0.707 2.122-2.475-0.707-0.707 0.353-2.122 21.923-24.044 60.111-43.492 99.36-44.199 1.414-1.061 3.889-2.475 6.718-1.768 0 0.354-1.768 0.354-1.768 0.354 3.889-0.354 7.425-0.354 9.193 0.353 0.354-0.354-1.414-0.707 0-0.707 2.475 0.707 3.182 0 4.597 0.707-1.061 0-2.122 0-2.829 0.354 8.84 0 14.497 2.122 23.337 2.829-4.597-1.061-5.657-1.061-9.193-2.122 3.889 0.707 5.657 1.414 7.425 1.061-0.707 0-0.354-1.061 0.354-0.707 7.072 1.768 7.779 2.475 15.204 4.95 0.707-0.707-3.182-1.061-4.243-2.122 7.072 2.475 13.436 4.243 17.68 7.072-1.414-1.061-5.657-2.475-8.84-3.889-0.354 0.354 1.061 0.707 1.414 1.414-3.536-1.768-8.486-3.536-13.436-4.243 4.243 1.061 7.072 2.475 8.84 3.182-3.889-0.707-8.84-3.182-14.498-4.243 9.193 2.829 26.519 9.193 37.127 14.851-3.889-2.475-8.486-4.243-10.961-5.657 2.122 0.354 4.597 1.768 4.597 1.06 2.475 1.061 5.657 3.536 7.425 3.89-3.182-2.122-9.547-5.304-11.668-6.365 26.519 12.022 50.21 32.177 65.414 57.989 1.414 2.475 3.536 8.133 5.304 8.84-0.354-1.768-1.768-2.829-3.182-5.657 0.707 0 0.707-1.061 0-2.122-1.414-1.768 0 1.414-1.415-0.354-6.365-11.669-14.144-21.923-26.165-33.237 6.718 6.365 1.768 1.768 0.353-0.354 9.193 8.133 19.801 21.923 24.398 28.995-0.707-1.061-1.061-1.768-0.707-1.768 8.486 14.497 13.79 27.58 19.094 46.32 0.354 0.354 0-1.414 0.707-0.353 3.536 14.851 4.597 27.227 4.243 38.541 2.829-19.094-3.536-48.796-14.851-72.133-1.414-2.829-1.414-0.707-2.829-3.889 0-1.061-1.061-3.182-1.768-4.597-14.144-23.337-31.47-39.956-51.978-53.038 1.414 0.707 4.243 2.829 4.244 2.475-38.188-25.105-82.387-28.641-118.807-20.862-2.475 1.061-3.536 2.122-6.365 3.536 5.304-1.768 8.486-2.122 13.437-3.183 1.061-1.061-4.597 0.354-2.122-0.707 0.354 0.354 4.95-0.707 6.011-0.353 0 0.354-1.414 0.707-1.768 1.06 11.669-2.475 23.691-2.829 33.945-2.121-6.011 0.354-16.972-0.707-20.508 1.061 3.536-0.354 8.486-0.707 11.668-0.354-4.243 0-12.022 0.354-15.558 0.707-0.354-0.354 5.657-1.061 1.768-1.06-1.768 0.354-4.597 0.354-5.657 1.414-30.409 2.829-60.111 18.74-80.973 37.481-4.243 3.536-9.193 7.425-12.375 11.314-7.779 8.84-12.729 17.68-18.387 25.459 3.536-7.425 11.315-18.74 20.508-28.287 9.193-9.547 19.094-17.68 24.398-21.923 0 1.414 8.486-5.304 11.669-7.425-2.122 1.768 1.414-0.707 2.121-0.354 11.315-6.718 20.508-9.193 30.763-13.083-2.475 0.707-4.597 1.414-4.951 1.061 2.475-0.707 3.889-1.414 3.536-1.768-9.901 2.829-25.459 9.547-37.834 16.972 22.276-15.204 50.564-24.398 78.497-24.751 27.934-0.707 55.16 6.365 76.729 17.68 14.497 6.365 28.287 18.033 39.249 29.348 3.182 2.829 0.707-0.707 5.304 4.243-1.414-0.707-2.475-1.414-0.707 0.707 2.829 3.182-0.707-2.475 3.889 3.182-0.354 0-1.768-1.768-1.768-1.061 12.376 10.961 21.923 30.762 27.58 43.846-1.414-5.304-4.95-12.729-7.779-18.033 8.486 15.558 11.315 24.751 14.851 38.541 1.414 1.061-0.707-4.95 0.707-2.121 0.354 2.122 0.707 8.84 2.122 9.9-1.061-6.718-2.829-14.851-4.243-16.265 1.061 0.707-1.768-8.133-3.536-10.254-0.707-5.657-5.657-15.558-9.901-22.984-15.204-29.702-42.431-54.099-72.839-67.536 0-0.707-1.768-1.414-2.476-2.121-30.055-12.729-66.122-16.265-100.773-8.133-35.006 8.486-67.889 28.641-91.227 57.636 1.061-3.536 9.901-10.254 10.255-13.083-10.254 10.961-21.215 25.459-28.641 41.016-7.779 15.558-12.022 31.47-13.79 43.138" data-fill-palette-color="tertiary"/></g><g transform="matrix(1,0,0,1,68.02807430330873,90)"><svg width="183.944" height="180" viewBox="0 0 183.944 180"><g><svg width="183.944" height="180" viewBox="0 0 224 219.197"><g transform="matrix(1,0,0,1,0,150.16972787067536)"><svg width="224" height="69.028" viewBox="0 0 224 69.028"><g><svg width="224" height="69.028" viewBox="0 0 224 69.028"><g><rect width="42.784" height="3.964" y="59.701" fill="#a437db" data-fill-palette-color="tertiary"/><rect width="42.784" height="3.964" x="181.216" y="59.701" fill="#a437db" data-fill-palette-color="tertiary"/></g><g><svg width="224" height="43.96" viewBox="0 0 224 43.96"><g transform="matrix(1,0,0,1,0,0)"><svg width="224" height="43.96" data-palette-color="#a437db" viewBox="3.15 -35.95 186.74 36.65"><path id="text-0" fill="#a437db" d="M12.8-35.95L12.8-35.95Q15.3-35.95 16.6-35.38 17.9-34.8 18.9-34.1L18.9-34.1Q19.5-33.75 19.88-33.58 20.25-33.4 20.6-33.4L20.6-33.4Q21.4-33.4 21.7-35.6L21.7-35.6 22.85-35.6Q22.8-34.75 22.73-33.58 22.65-32.4 22.63-30.48 22.6-28.55 22.6-25.4L22.6-25.4 21.45-25.4Q21.3-27.8 20.4-30 19.5-32.2 17.78-33.6 16.05-35 13.25-35L13.25-35Q10.6-35 8.88-33.4 7.15-31.8 7.15-29.2L7.15-29.2Q7.15-26.95 8.3-25.43 9.45-23.9 11.38-22.68 13.3-21.45 15.55-20.05L15.55-20.05Q18.15-18.45 20.18-16.88 22.2-15.3 23.38-13.4 24.55-11.5 24.55-8.8L24.55-8.8Q24.55-5.6 23.1-3.5 21.65-1.4 19.25-0.35 16.85 0.7 13.95 0.7L13.95 0.7Q11.3 0.7 9.75 0.1 8.2-0.5 7.1-1.15L7.1-1.15Q6-1.85 5.4-1.85L5.4-1.85Q4.6-1.85 4.3 0.35L4.3 0.35 3.15 0.35Q3.25-0.7 3.28-2.13 3.3-3.55 3.33-5.85 3.35-8.15 3.35-11.65L3.35-11.65 4.5-11.65Q4.7-8.65 5.63-6.05 6.55-3.45 8.47-1.88 10.4-0.3 13.6-0.3L13.6-0.3Q16.05-0.3 18.07-1.88 20.1-3.45 20.1-6.95L20.1-6.95Q20.1-10 17.95-12 15.8-14 12.3-16.1L12.3-16.1Q9.95-17.55 7.9-19.05 5.85-20.55 4.63-22.53 3.4-24.5 3.4-27.3L3.4-27.3Q3.4-30.25 4.73-32.18 6.05-34.1 8.2-35.02 10.35-35.95 12.8-35.95ZM50 0L50 0 50-1Q51.7-1.1 52.57-1.4 53.45-1.7 53.75-2.6 54.05-3.5 54.05-5.3L54.05-5.3 54.05-30.1Q54.05-31.95 53.75-32.83 53.45-33.7 52.57-34.02 51.7-34.35 50-34.4L50-34.4 50-35.4Q51.15-35.35 52.9-35.3 54.65-35.25 56.35-35.25L56.35-35.25Q58.3-35.25 60-35.3 61.7-35.35 62.75-35.4L62.75-35.4 62.75-34.4Q61.05-34.35 60.17-34.02 59.3-33.7 59-32.83 58.7-31.95 58.7-30.1L58.7-30.1 58.7-5.3Q58.7-3.5 59-2.6 59.3-1.7 60.17-1.4 61.05-1.1 62.75-1L62.75-1 62.75 0Q61.7-0.1 60-0.13 58.3-0.15 56.35-0.15L56.35-0.15Q54.65-0.15 52.9-0.13 51.15-0.1 50 0ZM29.1 0L29.1 0 29.1-1Q30.8-1.1 31.67-1.4 32.55-1.7 32.85-2.6 33.15-3.5 33.15-5.3L33.15-5.3 33.15-30.1Q33.15-31.95 32.85-32.83 32.55-33.7 31.67-34.02 30.8-34.35 29.1-34.4L29.1-34.4 29.1-35.4Q30.15-35.35 31.85-35.3 33.55-35.25 35.5-35.25L35.5-35.25Q37.25-35.25 38.97-35.3 40.7-35.35 41.85-35.4L41.85-35.4 41.85-34.4Q40.15-34.35 39.27-34.02 38.4-33.7 38.1-32.83 37.8-31.95 37.8-30.1L37.8-30.1 37.8-5.3Q37.8-3.5 38.1-2.6 38.4-1.7 39.27-1.4 40.15-1.1 41.85-1L41.85-1 41.85 0Q40.7-0.1 38.97-0.13 37.25-0.15 35.5-0.15L35.5-0.15Q33.55-0.15 31.85-0.13 30.15-0.1 29.1 0ZM55.8-17.3L36.05-17.3 36.05-18.3 55.8-18.3 55.8-17.3ZM81-35.65L81-35.65 93.19-4.2Q93.94-2.3 94.89-1.68 95.84-1.05 96.64-1L96.64-1 96.64 0Q95.64-0.1 94.19-0.13 92.75-0.15 91.3-0.15L91.3-0.15Q89.34-0.15 87.64-0.13 85.94-0.1 84.89 0L84.89 0 84.89-1Q87.44-1.1 88.14-1.88 88.84-2.65 87.84-5.2L87.84-5.2 78.55-30.05 79.34-30.7 70.64-8.1Q69.59-5.4 69.64-3.88 69.69-2.35 70.8-1.7 71.89-1.05 74-1L74-1 74 0Q72.59-0.1 71.07-0.13 69.55-0.15 68.25-0.15L68.25-0.15Q67-0.15 66.12-0.13 65.25-0.1 64.5 0L64.5 0 64.5-1Q65.5-1.25 66.55-2.18 67.59-3.1 68.44-5.35L68.44-5.35 80.19-35.65Q80.39-35.65 80.59-35.65 80.8-35.65 81-35.65ZM72.69-14.4L87.09-14.4 87.09-13.4 72.19-13.4 72.69-14.4ZM97.44-34.4L97.44-35.4Q98.49-35.35 100.19-35.3 101.89-35.25 103.54-35.25L103.54-35.25Q105.89-35.25 108.04-35.3 110.19-35.35 111.09-35.35L111.09-35.35Q117.14-35.35 120.14-32.85 123.14-30.35 123.14-26.65L123.14-26.65Q123.14-25.15 122.54-23.45 121.94-21.75 120.47-20.25 118.99-18.75 116.44-17.78 113.89-16.8 109.99-16.8L109.99-16.8 105.19-16.8 105.19-17.8 109.49-17.8Q113.04-17.8 114.92-18.93 116.79-20.05 117.47-21.93 118.14-23.8 118.14-26.1L118.14-26.1Q118.14-30.05 116.27-32.23 114.39-34.4 109.84-34.4L109.84-34.4Q107.54-34.4 106.84-33.55 106.14-32.7 106.14-30.1L106.14-30.1 106.14-5.3Q106.14-3.5 106.44-2.6 106.74-1.7 107.62-1.4 108.49-1.1 110.19-1L110.19-1 110.19 0Q109.04-0.1 107.32-0.13 105.59-0.15 103.84-0.15L103.84-0.15Q101.89-0.15 100.19-0.13 98.49-0.1 97.44 0L97.44 0 97.44-1Q99.14-1.1 100.02-1.4 100.89-1.7 101.19-2.6 101.49-3.5 101.49-5.3L101.49-5.3 101.49-30.1Q101.49-31.95 101.19-32.83 100.89-33.7 100.02-34.02 99.14-34.35 97.44-34.4L97.44-34.4ZM105.49-16.8L105.39-17.65Q108.09-17.55 109.64-17.43 111.19-17.3 112.17-17.2 113.14-17.1 114.04-16.95L114.04-16.95Q117.39-16.4 118.87-14.93 120.34-13.45 121.04-10.35L121.04-10.35 122.29-5.25Q122.79-3.05 123.32-2.08 123.84-1.1 124.94-1.15L124.94-1.15Q125.79-1.2 126.37-1.7 126.94-2.2 127.59-3.05L127.59-3.05 128.34-2.5Q127.29-0.95 126.17-0.13 125.04 0.7 122.99 0.7L122.99 0.7Q121.14 0.7 119.74-0.4 118.34-1.5 117.64-4.7L117.64-4.7 116.54-9.7Q116.09-11.85 115.52-13.43 114.94-15 113.92-15.9 112.89-16.8 110.89-16.8L110.89-16.8 105.49-16.8ZM158.49-35.4L158.49-35.4 158.49-34.4Q156.94-34.2 155.49-33.4 154.04-32.6 152.59-30.75L152.59-30.75 142.94-18.4 144.04-20.85 156.04-4.05Q156.89-2.8 157.89-2.1 158.89-1.4 160.44-1L160.44-1 160.44 0Q159.24-0.1 157.47-0.13 155.69-0.15 154.44-0.15L154.44-0.15Q153.59-0.15 152.37-0.13 151.14-0.1 149.29 0L149.29 0 149.29-1Q150.99-1.1 151.44-1.6 151.89-2.1 151.09-3.25L151.09-3.25 143.79-14.25Q142.79-15.8 142.02-16.57 141.24-17.35 140.42-17.6 139.59-17.85 138.34-17.9L138.34-17.9 138.34-18.9Q140.44-18.95 141.87-19.73 143.29-20.5 144.24-21.7L144.24-21.7 149.04-27.8Q150.69-29.9 151.29-31.35 151.89-32.8 151.24-33.58 150.59-34.35 148.49-34.4L148.49-34.4 148.49-35.4Q149.94-35.35 151.44-35.3 152.94-35.25 154.24-35.25L154.24-35.25Q156.99-35.25 158.49-35.4ZM142.59-35.4L142.59-35.4 142.59-34.4Q140.89-34.35 140.02-34.02 139.14-33.7 138.84-32.83 138.54-31.95 138.54-30.1L138.54-30.1 138.54-5.3Q138.54-3.5 138.84-2.6 139.14-1.7 140.02-1.4 140.89-1.1 142.59-1L142.59-1 142.59 0Q141.44-0.1 139.72-0.13 137.99-0.15 136.24-0.15L136.24-0.15Q134.29-0.15 132.59-0.13 130.89-0.1 129.84 0L129.84 0 129.84-1Q131.54-1.1 132.42-1.4 133.29-1.7 133.59-2.6 133.89-3.5 133.89-5.3L133.89-5.3 133.89-30.1Q133.89-31.95 133.59-32.83 133.29-33.7 132.42-34.02 131.54-34.35 129.84-34.4L129.84-34.4 129.84-35.4Q130.89-35.35 132.59-35.3 134.29-35.25 136.24-35.25L136.24-35.25Q137.99-35.25 139.72-35.3 141.44-35.35 142.59-35.4ZM189.89-35.4L189.89-35.4 189.89-34.4Q188.94-34.2 187.99-33.18 187.04-32.15 185.89-29.95L185.89-29.95 175.79-9.95 174.94-9.95 163.24-31.55Q162.24-33.4 161.56-33.88 160.89-34.35 160.34-34.35L160.34-34.35 160.34-35.4Q161.34-35.35 162.41-35.3 163.49-35.25 164.74-35.25L164.74-35.25Q166.39-35.25 168.26-35.27 170.14-35.3 171.74-35.4L171.74-35.4 171.74-34.35Q170.49-34.35 169.54-34.05 168.59-33.75 168.29-32.95 167.99-32.15 168.74-30.7L168.74-30.7 177.19-14.5 176.79-14.2 183.44-27.45Q184.84-30.2 184.81-31.7 184.79-33.2 183.64-33.77 182.49-34.35 180.39-34.4L180.39-34.4 180.39-35.4Q181.84-35.35 183.34-35.3 184.84-35.25 186.14-35.25L186.14-35.25Q187.44-35.25 188.29-35.3 189.14-35.35 189.89-35.4ZM176.09-12.45L178.04-15.2 178.04-5.3Q178.04-3.5 178.34-2.6 178.64-1.7 179.51-1.4 180.39-1.1 182.09-1L182.09-1 182.09 0Q180.94-0.1 179.21-0.13 177.49-0.15 175.74-0.15L175.74-0.15Q173.79-0.15 172.09-0.13 170.39-0.1 169.34 0L169.34 0 169.34-1Q171.04-1.1 171.91-1.4 172.79-1.7 173.09-2.6 173.39-3.5 173.39-5.3L173.39-5.3 173.39-15.55 176.09-12.45Z" class="undefined-text-0" data-fill-palette-color="primary" opacity="1" transform="matrix(1,0,0,1,0,0)"/></svg></g></svg></g><g transform="matrix(1,0,0,1,42.784000000000006,54.33836428165998)"><svg width="138.432" height="14.689" viewBox="0 0 138.432 14.689"><g transform="matrix(1,0,0,1,8,0)"><svg width="122.432" height="14.689" data-palette-color="#b19dd0" viewBox="1.76 -38.01 320.86 38.5"><path id="text-1" fill="#b19dd0" d="M22.02 0L15.06 0Q14.77-0.61 14.48-2.05L14.48-2.05Q12.62 0.49 9.45 0.49L9.45 0.49Q6.13 0.49 3.94-1.71 1.76-3.91 1.76-7.4L1.76-7.4Q1.76-11.55 4.41-13.82 7.06-16.09 12.04-16.14L12.04-16.14 14.14-16.14 14.14-18.26Q14.14-20.04 13.53-20.78 12.92-21.51 11.74-21.51L11.74-21.51Q9.16-21.51 9.16-18.48L9.16-18.48 2.25-18.48Q2.25-22.14 4.99-24.52 7.74-26.9 11.94-26.9L11.94-26.9Q16.28-26.9 18.66-24.65 21.04-22.39 21.04-18.19L21.04-18.19 21.04-5.76Q21.09-2.34 22.02-0.42L22.02-0.42 22.02 0ZM10.99-4.93L10.99-4.93Q12.13-4.93 12.94-5.4 13.75-5.86 14.14-6.49L14.14-6.49 14.14-11.99 12.48-11.99Q10.72-11.99 9.7-10.86 8.69-9.74 8.69-7.86L8.69-7.86Q8.69-4.93 10.99-4.93ZM35.59-5.25L35.59-5.25Q38.6-5.25 38.64-9.16L38.64-9.16 45.14-9.16Q45.09-4.83 42.48-2.17 39.87 0.49 35.74 0.49L35.74 0.49Q30.64 0.49 27.95-2.69 25.27-5.86 25.22-12.04L25.22-12.04 25.22-14.14Q25.22-20.36 27.87-23.63 30.52-26.9 35.69-26.9L35.69-26.9Q40.06-26.9 42.58-24.21 45.09-21.51 45.14-16.55L45.14-16.55 38.64-16.55Q38.62-18.77 37.91-19.97 37.2-21.17 35.57-21.17L35.57-21.17Q33.76-21.17 32.98-19.89 32.2-18.6 32.15-14.92L32.15-14.92 32.15-12.23Q32.15-9.01 32.47-7.73 32.79-6.45 33.52-5.85 34.25-5.25 35.59-5.25ZM62.23 0L62.03-2.42Q59.88 0.49 56.27 0.49L56.27 0.49Q52.63 0.49 50.75-2.01 48.87-4.52 48.87-9.3L48.87-9.3 48.87-26.42 55.78-26.42 55.78-9.13Q55.83-5.27 58.34-5.27L58.34-5.27Q60.71-5.27 61.76-7.32L61.76-7.32 61.76-26.42 68.72-26.42 68.72 0 62.23 0ZM86.76-26.59L86.69-19.75 84.39-19.95Q81.56-19.95 80.56-17.46L80.56-17.46 80.56 0 73.63 0 73.63-26.42 80.14-26.42 80.34-23.56Q81.97-26.9 84.86-26.9L84.86-26.9Q86.03-26.9 86.76-26.59L86.76-26.59ZM109 0L102.04 0Q101.75-0.61 101.45-2.05L101.45-2.05Q99.6 0.49 96.43 0.49L96.43 0.49Q93.11 0.49 90.92-1.71 88.74-3.91 88.74-7.4L88.74-7.4Q88.74-11.55 91.38-13.82 94.03-16.09 99.01-16.14L99.01-16.14 101.11-16.14 101.11-18.26Q101.11-20.04 100.5-20.78 99.89-21.51 98.72-21.51L98.72-21.51Q96.13-21.51 96.13-18.48L96.13-18.48 89.22-18.48Q89.22-22.14 91.97-24.52 94.72-26.9 98.92-26.9L98.92-26.9Q103.26-26.9 105.64-24.65 108.02-22.39 108.02-18.19L108.02-18.19 108.02-5.76Q108.07-2.34 109-0.42L109-0.42 109 0ZM97.96-4.93L97.96-4.93Q99.11-4.93 99.92-5.4 100.72-5.86 101.11-6.49L101.11-6.49 101.11-11.99 99.45-11.99Q97.7-11.99 96.68-10.86 95.67-9.74 95.67-7.86L95.67-7.86Q95.67-4.93 97.96-4.93ZM114.15-32.91L121.06-32.91 121.06-26.42 124.6-26.42 124.6-21.22 121.06-21.22 121.06-8.11Q121.06-6.54 121.48-5.96 121.91-5.37 123.13-5.37L123.13-5.37Q124.13-5.37 124.77-5.54L124.77-5.54 124.72-0.17Q122.96 0.49 120.91 0.49L120.91 0.49Q114.22 0.49 114.15-7.18L114.15-7.18 114.15-21.22 111.1-21.22 111.1-26.42 114.15-26.42 114.15-32.91ZM139.05 0.49L139.05 0.49Q133.73 0.49 130.75-2.69 127.77-5.86 127.77-11.77L127.77-11.77 127.77-13.87Q127.77-20.12 130.5-23.51 133.24-26.9 138.34-26.9L138.34-26.9Q143.32-26.9 145.83-23.72 148.35-20.53 148.4-14.28L148.4-14.28 148.4-10.89 134.65-10.89Q134.8-7.96 135.95-6.6 137.09-5.25 139.49-5.25L139.49-5.25Q142.95-5.25 145.27-7.62L145.27-7.62 147.98-3.44Q146.71-1.68 144.3-0.6 141.88 0.49 139.05 0.49ZM134.7-15.72L134.7-15.72 141.61-15.72 141.61-16.36Q141.56-18.73 140.83-19.95 140.1-21.17 138.29-21.17 136.48-21.17 135.67-19.87 134.85-18.58 134.7-15.72ZM183.33 0L176.37 0Q176.08-0.61 175.79-2.05L175.79-2.05Q173.93 0.49 170.76 0.49L170.76 0.49Q167.44 0.49 165.25-1.71 163.07-3.91 163.07-7.4L163.07-7.4Q163.07-11.55 165.71-13.82 168.36-16.09 173.34-16.14L173.34-16.14 175.44-16.14 175.44-18.26Q175.44-20.04 174.83-20.78 174.22-21.51 173.05-21.51L173.05-21.51Q170.46-21.51 170.46-18.48L170.46-18.48 163.55-18.48Q163.55-22.14 166.3-24.52 169.05-26.9 173.25-26.9L173.25-26.9Q177.59-26.9 179.97-24.65 182.35-22.39 182.35-18.19L182.35-18.19 182.35-5.76Q182.4-2.34 183.33-0.42L183.33-0.42 183.33 0ZM172.29-4.93L172.29-4.93Q173.44-4.93 174.25-5.4 175.05-5.86 175.44-6.49L175.44-6.49 175.44-11.99 173.78-11.99Q172.03-11.99 171.01-10.86 170-9.74 170-7.86L170-7.86Q170-4.93 172.29-4.93ZM187.18-26.42L193.68-26.42 193.87-23.8Q196.22-26.9 200-26.9L200-26.9Q206.81-26.9 207.01-17.36L207.01-17.36 207.01 0 200.08 0 200.08-16.85Q200.08-19.09 199.4-20.1 198.73-21.12 197.05-21.12L197.05-21.12Q195.17-21.12 194.12-19.19L194.12-19.19 194.12 0 187.18 0 187.18-26.42ZM211.03-12.01L211.03-14.01Q211.03-20.51 213.23-23.71 215.43-26.9 219.63-26.9L219.63-26.9Q222.68-26.9 224.71-24.27L224.71-24.27 224.71-37.5 231.66-37.5 231.66 0 225.39 0 225.07-2.69Q222.95 0.49 219.6 0.49L219.6 0.49Q215.45 0.49 213.27-2.69 211.08-5.86 211.03-12.01L211.03-12.01ZM217.97-14.11L217.97-12.28Q217.97-8.37 218.8-6.82 219.63-5.27 221.61-5.27L221.61-5.27Q223.66-5.27 224.71-7.1L224.71-7.1 224.71-19.17Q223.68-21.12 221.63-21.12L221.63-21.12Q219.73-21.12 218.85-19.58 217.97-18.04 217.97-14.11L217.97-14.11ZM256.78 0L249.85 0 249.85-21.22 246.65-21.22 246.65-26.42 249.85-26.42 249.85-28.78Q249.87-33.15 252.16-35.58 254.44-38.01 258.47-38.01L258.47-38.01Q259.69-38.01 261.59-37.52L261.59-37.52 261.54-32.01Q260.83-32.23 259.86-32.23L259.86-32.23Q256.78-32.23 256.78-28.56L256.78-28.56 256.78-26.42 260.91-26.42 260.91-21.22 256.78-21.22 256.78 0ZM284.15 0L277.19 0Q276.9-0.61 276.6-2.05L276.6-2.05Q274.75 0.49 271.57 0.49L271.57 0.49Q268.25 0.49 266.07-1.71 263.88-3.91 263.88-7.4L263.88-7.4Q263.88-11.55 266.53-13.82 269.18-16.09 274.16-16.14L274.16-16.14 276.26-16.14 276.26-18.26Q276.26-20.04 275.65-20.78 275.04-21.51 273.87-21.51L273.87-21.51Q271.28-21.51 271.28-18.48L271.28-18.48 264.37-18.48Q264.37-22.14 267.12-24.52 269.86-26.9 274.06-26.9L274.06-26.9Q278.41-26.9 280.79-24.65 283.17-22.39 283.17-18.19L283.17-18.19 283.17-5.76Q283.22-2.34 284.15-0.42L284.15-0.42 284.15 0ZM273.11-4.93L273.11-4.93Q274.26-4.93 275.07-5.4 275.87-5.86 276.26-6.49L276.26-6.49 276.26-11.99 274.6-11.99Q272.84-11.99 271.83-10.86 270.82-9.74 270.82-7.86L270.82-7.86Q270.82-4.93 273.11-4.93ZM299.87-7.08L299.87-7.08Q299.87-7.96 299.03-8.7 298.18-9.45 295.28-10.72L295.28-10.72Q291.01-12.45 289.41-14.31 287.81-16.16 287.81-18.92L287.81-18.92Q287.81-22.39 290.31-24.65 292.81-26.9 296.94-26.9L296.94-26.9Q301.28-26.9 303.9-24.66 306.51-22.41 306.51-18.63L306.51-18.63 299.6-18.63Q299.6-21.85 296.91-21.85L296.91-21.85Q295.81-21.85 295.11-21.17 294.4-20.48 294.4-19.26L294.4-19.26Q294.4-18.38 295.18-17.71 295.96-17.04 298.87-15.8L298.87-15.8Q303.09-14.23 304.84-12.32 306.58-10.4 306.58-7.35L306.58-7.35Q306.58-3.81 303.92-1.66 301.26 0.49 296.94 0.49L296.94 0.49Q294.03 0.49 291.81-0.65 289.59-1.78 288.33-3.81 287.07-5.83 287.07-8.18L287.07-8.18 293.64-8.18Q293.69-6.37 294.48-5.47 295.28-4.57 297.08-4.57L297.08-4.57Q299.87-4.57 299.87-7.08ZM312-32.91L318.91-32.91 318.91-26.42 322.45-26.42 322.45-21.22 318.91-21.22 318.91-8.11Q318.91-6.54 319.34-5.96 319.76-5.37 320.98-5.37L320.98-5.37Q321.98-5.37 322.62-5.54L322.62-5.54 322.57-0.17Q320.81 0.49 318.76 0.49L318.76 0.49Q312.07 0.49 312-7.18L312-7.18 312-21.22 308.95-21.22 308.95-26.42 312-26.42 312-32.91Z" class="undefined-text-1" data-fill-palette-color="secondary" opacity="1" transform="matrix(1,0,0,1,0,0)"/></svg></g></svg></g></svg></g></svg></g><g transform="matrix(1,0,0,1,47.29312551365831,0)"><svg width="129.414" height="129.414" viewBox="0 0 129.414 129.414"><g><svg/></g><g id="icon-0"><svg width="129.414" height="129.414" viewBox="0 0 129.414 129.414"><g><path fill="#a437db" stroke="transparent" d="M0 64.707c0-35.737 28.97-64.707 64.707-64.707 35.737 0 64.707 28.97 64.707 64.707 0 35.737-28.97 64.707-64.707 64.707-35.737 0-64.707-28.97-64.707-64.707zM64.707 125.449c33.547 0 60.742-27.195 60.742-60.742 0-33.547-27.195-60.742-60.742-60.743-33.547 0-60.742 27.195-60.743 60.743 0 33.547 27.195 60.742 60.743 60.742z" data-fill-palette-color="tertiary"/></g><g transform="matrix(1,0,0,1,38.35964379604749,26.649763489250077)"><svg width="52.694" height="76.114" viewBox="0 0 52.694 76.114"><g><svg xmlns="http://www.w3.org/2000/svg" id="x-0" width="52.694" height="76.114" x="0" y="0" class="icon-x-0" data-fill-palette-color="accent" viewBox="14 6 36 52"><g fill="#b19dd0" data-fill-palette-color="accent" data-name="Layer 2"><rect width="8" height="52" x="28" y="6" fill="#b19dd0" data-fill-palette-color="accent"/><polygon fill="#b19dd0" points="14 6 14 22.48 26 30.93 26 10.51 14.36 6 14 6" data-fill-palette-color="accent"/><polygon fill="#b19dd0" points="49.64 6 38 10.51 38 30.93 50 22.48 50 6 49.64 6" data-fill-palette-color="accent"/></g></svg></g></svg></g></svg></g></svg></g></svg></g></svg></g></svg></g></svg><rect width="320" height="360" fill="none" stroke="none" visibility="hidden"/></g></svg></g></svg>